<svg xmlns="http://www.w3.org/2000/svg" viewBox="0 0 280 80" role="img" aria-labelledby="title desc">
  <title id="title">Life Plan 职业生涯规划助手</title>
  <desc id="desc">A polished compass path logo for a career planning assistant.</desc>
  <defs>
    <linearGradient id="markBg" x1="8" y1="8" x2="72" y2="72" gradientUnits="userSpaceOnUse">
      <stop stop-color="#2563eb"/>
      <stop offset=".5" stop-color="#14b8a6"/>
      <stop offset="1" stop-color="#f59e0b"/>
    </linearGradient>
    <linearGradient id="markNeedle" x1="29" y1="18" x2="49" y2="58" gradientUnits="userSpaceOnUse">
      <stop stop-color="#ffffff"/>
      <stop offset="1" stop-color="#e0f2fe"/>
    </linearGradient>
    <filter id="shadow" x="-20%" y="-20%" width="140%" height="150%" color-interpolation-filters="sRGB">
      <feDropShadow dx="0" dy="8" stdDeviation="7" flood-color="#0f172a" flood-opacity=".16"/>
    </filter>
  </defs>
  <g filter="url(#shadow)">
    <rect x="8" y="8" width="64" height="64" rx="20" fill="#f8fafc"/>
    <rect x="13" y="13" width="54" height="54" rx="17" fill="url(#markBg)"/>
    <path d="M28 50c7-17 20-26 37-28-5 16-15 30-32 37l-1-8-4-1Z" fill="url(#markNeedle)"/>
    <circle cx="40" cy="40" r="9" fill="#0f172a" opacity=".14"/>
    <circle cx="40" cy="40" r="4.8" fill="#ffffff"/>
    <path d="M22 58c10-2 18-5 25-11" fill="none" stroke="#ffffff" stroke-width="3.5" stroke-linecap="round" opacity=".82"/>
    <path d="M24 23h12M24 30h7" stroke="#ffffff" stroke-width="3.5" stroke-linecap="round" opacity=".75"/>
  </g>
  <g fill="#0f172a">
    <text x="88" y="36" font-family="Inter, 'Noto Sans SC', Arial, sans-serif" font-size="24" font-weight="800" letter-spacing="0">Life Plan</text>
    <text x="89" y="59" font-family="'Noto Sans SC', 'Microsoft YaHei', Arial, sans-serif" font-size="16" font-weight="600" fill="#475569">职业生涯规划助手</text>
  </g>
</svg>
